<?xml version="1.0" encoding="UTF-8"?>
<svg version="1.1" xmlns="http://www.w3.org/2000/svg" width="760" height="203">
<path d="M0 0 C13.52443944 8.40769318 20.74080671 21.04361099 25 36.09765625 C25.59375 38.64453125 25.59375 38.64453125 25.59375 40.64453125 C26.42132813 40.62132812 27.24890625 40.598125 28.1015625 40.57421875 C36.19987804 40.45178201 44.1517857 40.83991867 52.21875 41.58203125 C53.16637207 41.66888184 54.11399414 41.75573242 55.09033203 41.84521484 C59.32224544 42.25470602 63.4303322 42.76226341 67.59375 43.64453125 C67.13405797 50.19243857 66.6129373 56.72311638 65.875 63.24609375 C61.99605937 97.72938495 61.41175112 131.98454869 66.22143555 166.40527344 C66.48500854 168.29294434 66.48500854 168.29294434 66.75390625 170.21875 C66.91511963 171.33854248 67.07633301 172.45833496 67.24243164 173.61206055 C67.55697092 176.32706571 67.66201496 178.91552049 67.59375 181.64453125 C44.93306471 192.40188756 19.69143335 196.7300597 -5.28515625 196.84765625 C-6.78869156 196.85810974 -6.78869156 196.85810974 -8.32260132 196.86877441 C-11.53802744 196.88606349 -14.75327934 196.89249343 -17.96875 196.89453125 C-19.61389084 196.89604187 -19.61389084 196.89604187 -21.29226685 196.89758301 C-76.57824558 196.86320087 -76.57824558 196.86320087 -90.40625 187.64453125 C-88.15616223 187.7890041 -85.90618498 187.93519814 -83.65625 188.08203125 C-81.77679688 188.20384766 -81.77679688 188.20384766 -79.859375 188.328125 C-77.528601 188.48245967 -75.20776018 188.66415937 -72.88305664 188.89404297 C-63.37461074 189.81065947 -53.88826351 189.88793541 -44.34375 189.89453125 C-43.02141357 189.89554337 -43.02141357 189.89554337 -41.67236328 189.89657593 C-12.46269459 189.86124591 15.60868957 185.76573034 43.4765625 176.87890625 C46.82292379 175.82828664 50.10988012 175.11201539 53.59375 174.64453125 C53.26375 173.98453125 52.93375 173.32453125 52.59375 172.64453125 C52.31142574 170.53522903 52.08088087 168.41891154 51.875 166.30078125 C51.68357422 164.33431641 51.68357422 164.33431641 51.48828125 162.328125 C51.39087646 161.29341064 51.39087646 161.29341064 51.29150391 160.23779297 C51.09969098 158.20741767 50.90002641 156.17794023 50.69921875 154.1484375 C49.02607229 136.92526416 48.44763378 119.82020065 48.53125 102.51953125 C48.53628402 100.67448041 48.54084351 98.8294282 48.54492188 96.984375 C48.55575617 92.53772582 48.57291151 88.09114434 48.59375 83.64453125 C48.49936142 84.2560051 48.40497284 84.86747894 48.307724 85.4974823 C48.18160233 86.3145314 48.05548065 87.13158051 47.92553711 87.97338867 C47.79404266 88.82726166 47.66254822 89.68113464 47.52706909 90.56088257 C47.25901169 92.29300859 46.98573918 94.02433026 46.70922852 95.75512695 C44.15705224 112.97930111 44.45878743 130.46699214 44.53125 147.83203125 C44.53628211 149.96158747 44.54084195 152.09114487 44.54492188 154.22070312 C44.55577568 159.36200888 44.5729429 164.50325654 44.59375 169.64453125 C38.45384026 172.86896181 32.41170987 175.66423014 25.78125 177.70703125 C24.97067139 177.95743164 24.16009277 178.20783203 23.32495117 178.46582031 C-6.0233821 187.21612234 -60.68410421 196.00560415 -89.40625 181.64453125 C-88.59557476 177.39418107 -87.78239508 173.14431383 -86.96875 168.89453125 C-86.73865234 167.68796875 -86.50855469 166.48140625 -86.27148438 165.23828125 C-85.93793945 163.49804688 -85.93793945 163.49804688 -85.59765625 161.72265625 C-85.39342041 160.6543457 -85.18918457 159.58603516 -84.97875977 158.48535156 C-84.51473636 156.18284566 -84.00274246 153.91551459 -83.40625 151.64453125 C-84.72625 151.64453125 -86.04625 151.64453125 -87.40625 151.64453125 C-89.42969978 135.39110648 -90.61567806 119.06742517 -91.86138916 102.74060059 C-92.14755333 98.99877012 -92.43722388 95.2572111 -92.7265625 91.515625 C-93.28980893 84.22551554 -93.84929023 76.935124 -94.40625 69.64453125 C-91.47122405 68.63716497 -88.53285539 67.63992621 -85.59375 66.64453125 C-84.76037109 66.35835938 -83.92699219 66.0721875 -83.06835938 65.77734375 C-81.86469727 65.37128906 -81.86469727 65.37128906 -80.63671875 64.95703125 C-79.89832764 64.70566406 -79.15993652 64.45429687 -78.39916992 64.1953125 C-76.40625 63.64453125 -76.40625 63.64453125 -73.40625 63.64453125 C-73.40625 61.66453125 -73.40625 59.68453125 -73.40625 57.64453125 C-77.53217941 58.45235885 -81.65682105 59.26658043 -85.78125 60.08203125 C-86.956875 60.31212891 -88.1325 60.54222656 -89.34375 60.77929688 C-91.02597656 61.1128418 -91.02597656 61.1128418 -92.7421875 61.453125 C-94.29752197 61.75947876 -94.29752197 61.75947876 -95.88427734 62.07202148 C-98.38416248 62.53427392 -98.38416248 62.53427392 -100.40625 63.64453125 C-100.30078857 64.54429688 -100.19532715 65.4440625 -100.08666992 66.37109375 C-97.73254896 86.76751457 -95.90470691 107.14904656 -94.65625 127.64453125 C-94.59158539 128.69962891 -94.52692078 129.75472656 -94.46029663 130.84179688 C-94.2771518 133.85917187 -94.09812563 136.87674622 -93.921875 139.89453125 C-93.86894791 140.79300781 -93.81602081 141.69148437 -93.76148987 142.6171875 C-93.51635056 146.96658979 -93.34749421 151.28591996 -93.40625 155.64453125 C-91.75625 155.64453125 -90.10625 155.64453125 -88.40625 155.64453125 C-87.40625 157.64453125 -87.40625 157.64453125 -88.21069336 160.16650391 C-88.84696655 161.72183838 -88.84696655 161.72183838 -89.49609375 163.30859375 C-90.17768555 164.99082031 -90.17768555 164.99082031 -90.87304688 166.70703125 C-91.60104492 168.47046875 -91.60104492 168.47046875 -92.34375 170.26953125 C-92.82521484 171.45289063 -93.30667969 172.63625 -93.80273438 173.85546875 C-94.99704705 176.7880385 -96.19848663 179.7174812 -97.40625 182.64453125 C-98.39625 182.64453125 -99.38625 182.64453125 -100.40625 182.64453125 C-101.78491211 181.16333008 -101.78491211 181.16333008 -103.18359375 179.1015625 C-103.69728516 178.35712891 -104.21097656 177.61269531 -104.74023438 176.84570312 C-105.26939453 176.05744141 -105.79855469 175.26917969 -106.34375 174.45703125 C-107.3931431 172.92092576 -108.44389366 171.38574662 -109.49609375 169.8515625 C-109.99222168 169.12146973 -110.48834961 168.39137695 -110.99951172 167.63916016 C-112.18270386 165.96149966 -113.47323989 164.3602889 -114.78515625 162.78125 C-116.40625 160.64453125 -116.40625 160.64453125 -116.40625 157.64453125 C-114.42625 157.31453125 -112.44625 156.98453125 -110.40625 156.64453125 C-110.68723674 135.3795791 -111.11564173 114.16059831 -112.84375 92.95703125 C-112.90519196 92.19267761 -112.96663391 91.42832397 -113.02993774 90.64080811 C-113.773943 81.52511025 -114.75472178 72.47274842 -116.02368164 63.41479492 C-116.45795939 59.13492807 -116.48615023 54.94081182 -116.40625 50.64453125 C-111.10527834 49.7840483 -105.80336072 48.92974521 -100.50048828 48.08105469 C-98.69813429 47.79172007 -96.8960462 47.50072384 -95.09423828 47.20800781 C-92.49840999 46.78659781 -89.90167167 46.37125068 -87.3046875 45.95703125 C-86.5044516 45.82578857 -85.7042157 45.6945459 -84.87973022 45.55932617 C-80.67354534 44.89479587 -76.68162978 44.501022 -72.40625 44.64453125 C-72.16841797 43.35482422 -72.16841797 43.35482422 -71.92578125 42.0390625 C-68.78289132 26.11624443 -63.5021588 10.19636419 -49.40625 0.64453125 C-34.67007658 -8.15623899 -14.88213911 -8.38328291 0 0 Z M-49.40625 18.64453125 C-54.78181556 25.18984091 -58.40625 34.18104578 -58.40625 42.64453125 C-57.55703224 42.60743797 -57.55703224 42.60743797 -56.69065857 42.56959534 C-41.28377581 41.89708224 -25.87641662 41.23631787 -10.46875 40.58203125 C-8.30924436 40.49024454 -6.14973915 40.39844771 -3.99023438 40.30664062 C1.20442216 40.08582148 6.39908439 39.86513676 11.59375 39.64453125 C10.08521029 29.69851343 5.20536239 20.33964337 -2.40625 13.64453125 C-18.24464807 2.46616727 -36.39823565 4.50034452 -49.40625 18.64453125 Z M-60.40625 54.64453125 C-60.40625 56.62453125 -60.40625 58.60453125 -60.40625 60.64453125 C-58.86360474 60.40331543 -58.86360474 60.40331543 -57.28979492 60.15722656 C-33.37890965 56.4323389 -9.47256968 53.18334566 14.59375 50.64453125 C14.59375 50.31453125 14.59375 49.98453125 14.59375 49.64453125 C-10.44721837 48.96570982 -35.60153418 51.4279114 -60.40625 54.64453125 Z M49.59375 73.64453125 C50.59375 77.64453125 50.59375 77.64453125 50.59375 77.64453125 Z " fill="#FDCB01" transform="translate(116.40625,5.35546875)"/>
<path d="M0 0 C13.52443944 8.40769318 20.74080671 21.04361099 25 36.09765625 C25.59375 38.64453125 25.59375 38.64453125 25.59375 40.64453125 C26.42132813 40.62132812 27.24890625 40.598125 28.1015625 40.57421875 C36.19987804 40.45178201 44.1517857 40.83991867 52.21875 41.58203125 C53.16637207 41.66888184 54.11399414 41.75573242 55.09033203 41.84521484 C59.32224544 42.25470602 63.4303322 42.76226341 67.59375 43.64453125 C67.13405797 50.19243857 66.6129373 56.72311638 65.875 63.24609375 C61.99605937 97.72938495 61.41175112 131.98454869 66.22143555 166.40527344 C66.48500854 168.29294434 66.48500854 168.29294434 66.75390625 170.21875 C66.91511963 171.33854248 67.07633301 172.45833496 67.24243164 173.61206055 C67.55697092 176.32706571 67.66201496 178.91552049 67.59375 181.64453125 C44.93306471 192.40188756 19.69143335 196.7300597 -5.28515625 196.84765625 C-6.78869156 196.85810974 -6.78869156 196.85810974 -8.32260132 196.86877441 C-11.53802744 196.88606349 -14.75327934 196.89249343 -17.96875 196.89453125 C-19.61389084 196.89604187 -19.61389084 196.89604187 -21.29226685 196.89758301 C-76.57824558 196.86320087 -76.57824558 196.86320087 -90.40625 187.64453125 C-88.15616223 187.7890041 -85.90618498 187.93519814 -83.65625 188.08203125 C-81.77679688 188.20384766 -81.77679688 188.20384766 -79.859375 188.328125 C-77.528601 188.48245967 -75.20776018 188.66415937 -72.88305664 188.89404297 C-63.37461074 189.81065947 -53.88826351 189.88793541 -44.34375 189.89453125 C-43.02141357 189.89554337 -43.02141357 189.89554337 -41.67236328 189.89657593 C-12.46269459 189.86124591 15.60868957 185.76573034 43.4765625 176.87890625 C46.82292379 175.82828664 50.10988012 175.11201539 53.59375 174.64453125 C53.26375 173.98453125 52.93375 173.32453125 52.59375 172.64453125 C52.31142574 170.53522903 52.08088087 168.41891154 51.875 166.30078125 C51.74778564 165.00132568 51.62057129 163.70187012 51.48950195 162.36303711 C51.35696108 160.95692713 51.2250573 159.55075696 51.09375 158.14453125 C51.02682953 157.43459015 50.95990906 156.72464905 50.89096069 155.99319458 C47.66309661 121.61787554 46.34024771 86.60411016 53.59375 52.64453125 C44.68375 51.65453125 35.77375 50.66453125 26.59375 49.64453125 C26.92375 50.63453125 27.25375 51.62453125 27.59375 52.64453125 C27.85940622 55.44446344 28.03753153 58.2439666 28.21484375 61.05078125 C28.43827637 63.8756391 28.43827637 63.8756391 30.59375 66.64453125 C31.03125 69.51953125 31.03125 69.51953125 30.59375 72.64453125 C28.15625 75.45703125 28.15625 75.45703125 25.59375 77.64453125 C25.26375 77.97453125 24.93375 78.30453125 24.59375 78.64453125 C20.89362825 78.4350904 18.30125262 78.09805857 15.15625 76.08203125 C12.83620516 72.46276129 13.24509484 69.89812418 13.59375 65.64453125 C13.92375 65.31453125 14.25375 64.98453125 14.59375 64.64453125 C14.66646741 62.2913957 14.67745868 59.93619457 14.65625 57.58203125 C14.64722656 56.29167969 14.63820312 55.00132813 14.62890625 53.671875 C14.61730469 52.67285156 14.60570312 51.67382812 14.59375 50.64453125 C-6.08405632 50.08398831 -27.12954513 51.5521658 -47.66162109 54.03466797 C-51.93624783 54.54573111 -56.10198482 54.72289238 -60.40625 54.64453125 C-60.46027274 56.74841694 -60.49905256 58.85269839 -60.53125 60.95703125 C-60.55445313 62.12878906 -60.57765625 63.30054687 -60.6015625 64.5078125 C-60.65945618 67.80846786 -60.65945618 67.80846786 -58.40625 70.64453125 C-57.93827417 74.85631368 -57.94059205 76.93052239 -60.28125 80.51953125 C-62.79291318 83.03119443 -63.70009163 83.56606921 -67.21875 83.95703125 C-71.1370145 83.57288767 -72.61918267 82.35196808 -75.40625 79.64453125 C-76.91559217 76.62584691 -76.58135672 73.97155896 -76.40625 70.64453125 C-75.41625 69.15953125 -75.41625 69.15953125 -74.40625 67.64453125 C-73.95023739 65.13556439 -73.95023739 65.13556439 -73.78125 62.45703125 C-73.70648438 61.55597656 -73.63171875 60.65492187 -73.5546875 59.7265625 C-73.50570312 59.03949219 -73.45671875 58.35242187 -73.40625 57.64453125 C-77.53217941 58.45235885 -81.65682105 59.26658043 -85.78125 60.08203125 C-86.956875 60.31212891 -88.1325 60.54222656 -89.34375 60.77929688 C-91.02597656 61.1128418 -91.02597656 61.1128418 -92.7421875 61.453125 C-94.29752197 61.75947876 -94.29752197 61.75947876 -95.88427734 62.07202148 C-98.38416248 62.53427392 -98.38416248 62.53427392 -100.40625 63.64453125 C-100.30078857 64.54429688 -100.19532715 65.4440625 -100.08666992 66.37109375 C-97.73254896 86.76751457 -95.90470691 107.14904656 -94.65625 127.64453125 C-94.59158539 128.69962891 -94.52692078 129.75472656 -94.46029663 130.84179688 C-94.2771518 133.85917187 -94.09812563 136.87674622 -93.921875 139.89453125 C-93.86894791 140.79300781 -93.81602081 141.69148437 -93.76148987 142.6171875 C-93.51635056 146.96658979 -93.34749421 151.28591996 -93.40625 155.64453125 C-91.75625 155.64453125 -90.10625 155.64453125 -88.40625 155.64453125 C-87.40625 157.64453125 -87.40625 157.64453125 -88.21069336 160.16650391 C-88.84696655 161.72183838 -88.84696655 161.72183838 -89.49609375 163.30859375 C-90.17768555 164.99082031 -90.17768555 164.99082031 -90.87304688 166.70703125 C-91.60104492 168.47046875 -91.60104492 168.47046875 -92.34375 170.26953125 C-92.82521484 171.45289063 -93.30667969 172.63625 -93.80273438 173.85546875 C-94.99704705 176.7880385 -96.19848663 179.7174812 -97.40625 182.64453125 C-98.39625 182.64453125 -99.38625 182.64453125 -100.40625 182.64453125 C-101.78491211 181.16333008 -101.78491211 181.16333008 -103.18359375 179.1015625 C-103.69728516 178.35712891 -104.21097656 177.61269531 -104.74023438 176.84570312 C-105.26939453 176.05744141 -105.79855469 175.26917969 -106.34375 174.45703125 C-107.3931431 172.92092576 -108.44389366 171.38574662 -109.49609375 169.8515625 C-109.99222168 169.12146973 -110.48834961 168.39137695 -110.99951172 167.63916016 C-112.18270386 165.96149966 -113.47323989 164.3602889 -114.78515625 162.78125 C-116.40625 160.64453125 -116.40625 160.64453125 -116.40625 157.64453125 C-114.42625 157.31453125 -112.44625 156.98453125 -110.40625 156.64453125 C-110.68723674 135.3795791 -111.11564173 114.16059831 -112.84375 92.95703125 C-112.90519196 92.19267761 -112.96663391 91.42832397 -113.02993774 90.64080811 C-113.773943 81.52511025 -114.75472178 72.47274842 -116.02368164 63.41479492 C-116.45795939 59.13492807 -116.48615023 54.94081182 -116.40625 50.64453125 C-111.10527834 49.7840483 -105.80336072 48.92974521 -100.50048828 48.08105469 C-98.69813429 47.79172007 -96.8960462 47.50072384 -95.09423828 47.20800781 C-92.49840999 46.78659781 -89.90167167 46.37125068 -87.3046875 45.95703125 C-86.5044516 45.82578857 -85.7042157 45.6945459 -84.87973022 45.55932617 C-80.67354534 44.89479587 -76.68162978 44.501022 -72.40625 44.64453125 C-72.16841797 43.35482422 -72.16841797 43.35482422 -71.92578125 42.0390625 C-68.78289132 26.11624443 -63.5021588 10.19636419 -49.40625 0.64453125 C-34.67007658 -8.15623899 -14.88213911 -8.38328291 0 0 Z M-49.40625 18.64453125 C-54.78181556 25.18984091 -58.40625 34.18104578 -58.40625 42.64453125 C-57.55703224 42.60743797 -57.55703224 42.60743797 -56.69065857 42.56959534 C-41.28377581 41.89708224 -25.87641662 41.23631787 -10.46875 40.58203125 C-8.30924436 40.49024454 -6.14973915 40.39844771 -3.99023438 40.30664062 C1.20442216 40.08582148 6.39908439 39.86513676 11.59375 39.64453125 C10.08521029 29.69851343 5.20536239 20.33964337 -2.40625 13.64453125 C-18.24464807 2.46616727 -36.39823565 4.50034452 -49.40625 18.64453125 Z " fill="#223993" transform="translate(116.40625,5.35546875)"/>
<path d="M0 0 C7.26 0 14.52 0 22 0 C22.33 12.54 22.66 25.08 23 38 C25.31 36.02 27.62 34.04 30 32 C39.21027827 27.08609975 47.66273114 26.90646445 57.5625 29.5625 C67.90494855 33.05049381 74.81770756 39.42958462 80 49 C86.57913792 64.01803215 86.89193767 82.96831806 81.25 98.3125 C76.12658982 109.71863215 69.26164756 116.77845401 57.5 121.4375 C45.70848585 124.94760279 32.07682554 124.45767789 21 119 C9.70307242 112.78829908 4.58811164 104.14437786 1 92 C-0.14540149 87.49370218 -0.13439717 83.06440818 -0.11352539 78.44604492 C-0.11367142 77.59675415 -0.11381744 76.74746338 -0.1139679 75.87243652 C-0.11327319 73.07508763 -0.10550149 70.27780596 -0.09765625 67.48046875 C-0.0957905 65.5370538 -0.09436734 63.59363837 -0.09336853 61.65022278 C-0.08955571 56.54239599 -0.07973597 51.43459776 -0.06866455 46.32678223 C-0.05842387 41.11173896 -0.05386522 35.89669106 -0.04882812 30.68164062 C-0.0381126 20.45441253 -0.02052579 10.22721311 0 0 Z M27.46484375 55.54296875 C21.17771718 63.55309794 21.28817512 73.24252356 22 83 C23.04746425 88.77252195 24.58217029 93.9403727 29 98 C34.43052145 101.73965454 39.47224191 102.94263655 46 102 C51.96606771 100.28096354 55.73774323 97.20143107 59 92 C62.74144913 82.5094949 62.96854816 71.74004722 60 62 C57.14745509 56.49866339 52.97916313 51.99305438 47 50 C39.45565519 49.18258431 32.99009998 49.98959417 27.46484375 55.54296875 Z " fill="#223994" transform="translate(257,59)"/>
<path d="M0 0 C10.59225619 8.90105562 14.14937594 19.77434604 15.5 33.125 C15.9721113 42.44901263 15.78483164 51.79340597 15.6875 61.125 C15.67242156 63.65363784 15.65873877 66.1822844 15.64648438 68.7109375 C15.61373963 74.84917734 15.56213206 80.98699016 15.5 87.125 C8.24 87.125 0.98 87.125 -6.5 87.125 C-6.995 83.165 -6.995 83.165 -7.5 79.125 C-7.9846875 79.52332031 -8.469375 79.92164063 -8.96875 80.33203125 C-18.46195165 87.83531178 -26.31686075 89.25213035 -38.5 88.125 C-48.53172331 85.91101618 -56.32532828 80.64891848 -62.1875 72.25390625 C-70.69585886 58.4531456 -71.64370963 41.18696197 -68.37036133 25.54321289 C-66.67087658 18.53336181 -64.23895363 12.64045688 -59.5 7.125 C-58.97535156 6.49207031 -58.45070313 5.85914062 -57.91015625 5.20703125 C-44.13930586 -9.98950718 -16.47838086 -11.68243419 0 0 Z M-41.03515625 20.66796875 C-47.32228282 28.67809794 -47.21182488 38.36752356 -46.5 48.125 C-45.45253575 53.89752195 -43.91782971 59.0653727 -39.5 63.125 C-34.06947855 66.86465454 -29.02775809 68.06763655 -22.5 67.125 C-16.53393229 65.40596354 -12.76225677 62.32643107 -9.5 57.125 C-5.65787921 47.48623008 -5.42735768 36.02022985 -8.5 26.125 C-10.94046108 21.49653934 -14.16493524 17.17596579 -19.359375 15.5390625 C-27.42635036 13.97866216 -35.03314372 14.63541163 -41.03515625 20.66796875 Z " fill="#223994" transform="translate(738.5,93.875)"/>
<path d="M0 0 C10.59225619 8.90105562 14.14937594 19.77434604 15.5 33.125 C15.9721113 42.44901263 15.78483164 51.79340597 15.6875 61.125 C15.67242156 63.65363784 15.65873877 66.1822844 15.64648438 68.7109375 C15.61373963 74.84917734 15.56213206 80.98699016 15.5 87.125 C8.24 87.125 0.98 87.125 -6.5 87.125 C-6.995 83.165 -6.995 83.165 -7.5 79.125 C-7.9846875 79.52332031 -8.469375 79.92164063 -8.96875 80.33203125 C-18.46195165 87.83531178 -26.31686075 89.25213035 -38.5 88.125 C-48.53172331 85.91101618 -56.32532828 80.64891848 -62.1875 72.25390625 C-70.69585886 58.4531456 -71.64370963 41.18696197 -68.37036133 25.54321289 C-66.67087658 18.53336181 -64.23895363 12.64045688 -59.5 7.125 C-58.97535156 6.49207031 -58.45070313 5.85914062 -57.91015625 5.20703125 C-44.13930586 -9.98950718 -16.47838086 -11.68243419 0 0 Z M-41.03515625 20.66796875 C-47.32228282 28.67809794 -47.21182488 38.36752356 -46.5 48.125 C-45.45253575 53.89752195 -43.91782971 59.0653727 -39.5 63.125 C-34.06947855 66.86465454 -29.02775809 68.06763655 -22.5 67.125 C-16.53393229 65.40596354 -12.76225677 62.32643107 -9.5 57.125 C-5.65787921 47.48623008 -5.42735768 36.02022985 -8.5 26.125 C-10.94046108 21.49653934 -14.16493524 17.17596579 -19.359375 15.5390625 C-27.42635036 13.97866216 -35.03314372 14.63541163 -41.03515625 20.66796875 Z " fill="#223994" transform="translate(420.5,93.875)"/>
<path d="M0 0 C10.23480724 7.53551742 15.7800588 17.92661953 17.83984375 30.4453125 C19.41040379 45.89273863 18.22134546 62.66446338 8.125 75.25 C0.49797349 83.43085623 -8.95658871 87.99853054 -20.171875 88.5859375 C-34.64430238 88.88185112 -45.83508996 86.27001559 -56.875 76.25 C-66.13267705 66.08772665 -68.33780722 51.45729757 -67.7890625 38.16894531 C-66.93043758 24.19735016 -63.74909234 11.86498691 -52.875 2.25 C-37.41516169 -9.4604423 -16.50968514 -10.22427201 0 0 Z M-40.62109375 23.4453125 C-45.56437744 30.55994509 -45.47812567 40.85965734 -44.125 49.125 C-42.4381698 56.80944868 -39.49497567 61.87939241 -32.875 66.25 C-27.21748924 68.12454448 -21.11344889 68.10961723 -15.625 65.75 C-9.9220821 62.52364804 -7.65933782 57.4909652 -5.5625 51.5 C-3.42835194 41.03446625 -4.82104469 31.35791062 -9.5625 21.875 C-13.19156123 17.75552509 -16.93678402 15.65355127 -22.40625 14.90234375 C-30.59048372 14.61885373 -35.54854769 17.06158612 -40.62109375 23.4453125 Z " fill="#223994" transform="translate(606.875,93.75)"/>
<path d="M0 0 C9.3289634 7.88388868 13.48281918 16.60864716 14.9921875 28.68359375 C7.4021875 28.68359375 -0.1878125 28.68359375 -8.0078125 28.68359375 C-9.6578125 25.71359375 -11.3078125 22.74359375 -13.0078125 19.68359375 C-18.8243505 15.03036335 -23.7597597 14.02029441 -31.0078125 14.68359375 C-36.21280214 16.30482003 -39.16137232 18.00729916 -42.0078125 22.68359375 C-46.36768247 31.15903063 -46.27377529 41.8710549 -44.28125 51.01953125 C-42.14405407 57.50062134 -39.74090586 60.609653 -33.7578125 63.93359375 C-27.42055137 65.6619377 -21.6272043 65.3068473 -15.78125 62.23828125 C-13.49214197 60.23153016 -13.01190599 58.26447722 -11.9453125 55.43359375 C-10.58984375 52.76953125 -10.58984375 52.76953125 -8.0078125 50.68359375 C-0.48373159 49.31451298 7.41132841 50.08689256 14.9921875 50.68359375 C13.1487801 62.39046138 9.88906442 71.21098094 0.5 78.9609375 C-10.95652896 86.83060926 -22.52835409 87.71873944 -36.0078125 86.68359375 C-47.54406572 84.5151251 -56.2122032 78.12482194 -63.0078125 68.68359375 C-68.17122011 59.64360909 -69.38279008 50.13526813 -69.3203125 39.87109375 C-69.31467285 38.90204102 -69.3090332 37.93298828 -69.30322266 36.93457031 C-69.08374871 23.97908837 -66.20499256 13.63652747 -57.4453125 3.80859375 C-56.23875 2.75671875 -56.23875 2.75671875 -55.0078125 1.68359375 C-54.2446875 1.00296875 -53.4815625 0.32234375 -52.6953125 -0.37890625 C-37.09752054 -11.62382603 -15.57579865 -11.43936861 0 0 Z " fill="#223994" transform="translate(515.0078125,95.31640625)"/>
<path d="M0 0 C7.26 0 14.52 0 22 0 C22 40.26 22 80.52 22 122 C14.74 122 7.48 122 0 122 C0 81.74 0 41.48 0 0 Z " fill="#223994" transform="translate(636,59)"/>
<path d="M0 0 C2.875 0.8125 2.875 0.8125 4.875 1.8125 C4.875 4.4525 4.875 7.0925 4.875 9.8125 C1.78690305 11.57712683 0.64187864 11.8125 -3.125 11.8125 C-3.22683594 12.52664062 -3.32867187 13.24078125 -3.43359375 13.9765625 C-5.49490896 22.4314486 -11.99688725 30.04514485 -19.125 34.8125 C-32.69153541 42.50982505 -44.58921435 45.99501147 -60.1875 46.0625 C-61.93450195 46.0934375 -61.93450195 46.0934375 -63.71679688 46.125 C-80.40632576 46.1993823 -92.80972095 41.2698199 -105.03125 29.9609375 C-110.125 24.73414179 -110.125 24.73414179 -110.125 21.8125 C-111.053125 21.874375 -111.98125 21.93625 -112.9375 22 C-116.125 21.8125 -116.125 21.8125 -118 20.6875 C-119.65354531 17.93159116 -119.51865568 15.96174548 -119.125 12.8125 C-118 10.875 -118 10.875 -116.125 9.8125 C-112.47765021 10.03580713 -110.74127165 10.19622835 -108.125 12.8125 C-108 16.4375 -108 16.4375 -108.125 19.8125 C-107.279375 20.080625 -106.43375 20.34875 -105.5625 20.625 C-102.125 21.8125 -102.125 21.8125 -98.94921875 23.25 C-76.87392845 32.75153048 -49.74549196 30.76071831 -27.74780273 22.22290039 C-20.6226522 19.31429201 -12.88298189 16.01581391 -7.125 10.8125 C-7.125 9.678125 -7.125 8.54375 -7.125 7.375 C-7.125 3.8125 -7.125 3.8125 -5.5 1.3125 C-3.125 -0.1875 -3.125 -0.1875 0 0 Z " fill="#273C90" transform="translate(156.125,127.1875)"/>
<path d="M0 0 C1 3 1 3 0.00390625 5.48046875 C-0.47175781 6.37378906 -0.94742188 7.26710938 -1.4375 8.1875 C-1.91058594 9.08855469 -2.38367188 9.98960938 -2.87109375 10.91796875 C-3.42990234 11.94857422 -3.42990234 11.94857422 -4 13 C-3.39671875 12.7834375 -2.7934375 12.566875 -2.171875 12.34375 C-1.37265625 12.0653125 -0.5734375 11.786875 0.25 11.5 C1.03890625 11.2215625 1.8278125 10.943125 2.640625 10.65625 C5 10 5 10 9 10 C9.45152731 16.43426415 8.81636142 19.73960993 5 25 C1.37110107 28.21416763 -2.09804454 28.5192447 -6.78515625 28.35546875 C-11.18619176 27.64912972 -13.95238153 25.19211757 -16.8125 21.9375 C-19.23959201 17.97750777 -19.38595477 14.55426632 -19 10 C-14.65419724 1.47554075 -9.04986659 -0.72398933 0 0 Z " fill="#283D8F" transform="translate(133,97)"/>
<path d="M0 0 C1 3 1 3 0.00390625 5.48046875 C-0.47175781 6.37378906 -0.94742188 7.26710938 -1.4375 8.1875 C-1.91058594 9.08855469 -2.38367188 9.98960938 -2.87109375 10.91796875 C-3.42990234 11.94857422 -3.42990234 11.94857422 -4 13 C-3.39671875 12.7834375 -2.7934375 12.566875 -2.171875 12.34375 C-1.37265625 12.0653125 -0.5734375 11.786875 0.25 11.5 C1.03890625 11.2215625 1.8278125 10.943125 2.640625 10.65625 C5 10 5 10 9 10 C9.45152731 16.43426415 8.81636142 19.73960993 5 25 C1.37110107 28.21416763 -2.09804454 28.5192447 -6.78515625 28.35546875 C-11.18619176 27.64912972 -13.95238153 25.19211757 -16.8125 21.9375 C-19.23959201 17.97750777 -19.38595477 14.55426632 -19 10 C-14.65419724 1.47554075 -9.04986659 -0.72398933 0 0 Z " fill="#273C90" transform="translate(75,97)"/>
<path d="M0 0 C0 4.2952329 -2.06594546 5.85869031 -4.8828125 8.94140625 C-17.12039018 20.84030558 -32.97042026 23.39807278 -49.37451172 23.37060547 C-64.83191939 23.02646487 -78.80108536 17.42643404 -91 8 C-90.34 7.67 -89.68 7.34 -89 7 C-87.14453125 7.85546875 -87.14453125 7.85546875 -84.8125 9.1875 C-67.2265452 18.37724931 -45.04731236 19.49843797 -26.1015625 14.1875 C-16.71961081 10.96161403 -7.26979634 6.86591877 0 0 Z " fill="#334488" transform="translate(144,161)"/>
</svg>
